<svg xmlns="http://www.w3.org/2000/svg" width="26" height="26" viewBox="0 0 26 26" fill="none">
    <path fill-rule="evenodd" clip-rule="evenodd" d="M12.9249 19.9747C16.8185 19.9747 19.9748 16.8184 19.9748 12.9248C19.9748 9.03128 16.8185 5.87493 12.9249 5.87493C9.03135 5.87493 5.875 9.03128 5.875 12.9248C5.875 16.8184 9.03135 19.9747 12.9249 19.9747ZM12.9249 17.6248C15.5206 17.6248 17.6249 15.5205 17.6249 12.9248C17.6249 10.3291 15.5206 8.2249 12.9249 8.2249C10.3292 8.2249 8.22497 10.3291 8.22497 12.9248C8.22497 15.5205 10.3292 17.6248 12.9249 17.6248Z" fill="#00BEB4"/>
    <path d="M19.9748 4.70001C19.3258 4.70001 18.7998 5.22607 18.7998 5.87499C18.7998 6.52391 19.3258 7.04998 19.9748 7.04998C20.6237 7.04998 21.1498 6.52391 21.1498 5.87499C21.1498 5.22607 20.6237 4.70001 19.9748 4.70001Z" fill="#00BEB4"/>
    <path fill-rule="evenodd" clip-rule="evenodd" d="M0.768393 3.84932C0 5.35738 0 7.33154 0 11.2799V14.5698C0 18.5181 0 20.4923 0.768393 22.0003C1.44429 23.3269 2.52279 24.4054 3.84932 25.0812C5.35738 25.8497 7.33154 25.8497 11.2799 25.8497H14.5698C18.5181 25.8497 20.4923 25.8497 22.0003 25.0812C23.3269 24.4054 24.4054 23.3269 25.0812 22.0003C25.8497 20.4923 25.8497 18.5181 25.8497 14.5698V11.2799C25.8497 7.33154 25.8497 5.35738 25.0812 3.84932C24.4054 2.52279 23.3269 1.44429 22.0003 0.768393C20.4923 0 18.5181 0 14.5698 0H11.2799C7.33154 0 5.35738 0 3.84932 0.768393C2.52279 1.44429 1.44429 2.52279 0.768393 3.84932ZM14.5698 2.34997H11.2799C9.26692 2.34997 7.89854 2.3518 6.84086 2.43821C5.81058 2.52239 5.28372 2.67496 4.91618 2.86223C4.03183 3.31284 3.31284 4.03183 2.86223 4.91618C2.67496 5.28372 2.52239 5.81058 2.43821 6.84086C2.3518 7.89854 2.34997 9.26692 2.34997 11.2799V14.5698C2.34997 16.5828 2.3518 17.9511 2.43821 19.0088C2.52239 20.0391 2.67496 20.566 2.86223 20.9335C3.31284 21.8178 4.03183 22.5368 4.91618 22.9874C5.28372 23.1747 5.81058 23.3273 6.84086 23.4115C7.89854 23.4978 9.26692 23.4997 11.2799 23.4997H14.5698C16.5828 23.4997 17.9511 23.4978 19.0088 23.4115C20.0391 23.3273 20.566 23.1747 20.9335 22.9874C21.8178 22.5368 22.5368 21.8178 22.9874 20.9335C23.1747 20.566 23.3273 20.0391 23.4115 19.0088C23.4978 17.9511 23.4997 16.5828 23.4997 14.5698V11.2799C23.4997 9.26692 23.4978 7.89854 23.4115 6.84086C23.3273 5.81058 23.1747 5.28372 22.9874 4.91618C22.5368 4.03183 21.8178 3.31284 20.9335 2.86223C20.566 2.67496 20.0391 2.52239 19.0088 2.43821C17.9511 2.3518 16.5828 2.34997 14.5698 2.34997Z" fill="#00BEB4"/>
  </svg>