<svg xmlns="http://www.w3.org/2000/svg" width="200" height="36" viewBox="0 0 200 36" fill="none">
    <g clip-path="url(#clip0_10_92)">
      <path d="M80.5735 35.4227C79.2747 35.4227 77.9191 35.3328 76.5043 35.1554C75.092 34.9756 73.753 34.7106 72.4849 34.351C71.2192 33.9938 70.0813 33.5703 69.0758 33.0829C68.1981 32.6595 67.5807 32.1012 67.2234 31.4009C66.8662 30.703 66.7361 29.9625 66.8331 29.1842C66.9301 28.4035 67.2069 27.715 67.6611 27.1141C68.1153 26.5132 68.7162 26.1063 69.4638 25.8957C70.2114 25.6852 71.056 25.7916 71.9975 26.2127C73.2325 26.7971 74.6283 27.2537 76.1873 27.5778C77.7464 27.9043 79.2084 28.0651 80.5735 28.0651C82.7169 28.0651 84.2191 27.7813 85.0803 27.2135C85.9414 26.6457 86.372 25.9383 86.372 25.0937C86.372 24.3462 86.0715 23.7452 85.4706 23.291C84.8674 22.8368 83.8051 22.4464 82.2792 22.1223L76.5801 20.904C73.462 20.2534 71.1388 19.1178 69.6129 17.4925C68.0846 15.8696 67.3228 13.7735 67.3228 11.2067C67.3228 9.51749 67.6729 7.98447 68.3708 6.60286C69.0687 5.22362 70.06 4.04546 71.3422 3.07076C72.6245 2.09607 74.1528 1.34139 75.9224 0.804355C77.692 0.267325 79.665 -7.62939e-06 81.8415 -7.62939e-06C83.5307 -7.62939e-06 85.2435 0.186888 86.9824 0.56068C88.7212 0.934472 90.2235 1.49516 91.4891 2.24038C92.2367 2.63073 92.7738 3.16776 93.0979 3.8491C93.4243 4.53045 93.5545 5.23781 93.4882 5.96883C93.422 6.69986 93.1712 7.34098 92.7335 7.89457C92.2959 8.44816 91.7092 8.81249 90.9781 8.98993C90.2471 9.16972 89.3789 9.0467 88.3711 8.62323C87.4271 8.20212 86.3649 7.88511 85.1796 7.67219C83.9944 7.46164 82.8493 7.35518 81.7445 7.35518C80.5427 7.35518 79.5183 7.49476 78.6761 7.76919C77.8315 8.04598 77.1904 8.44343 76.7528 8.9639C76.3127 9.48437 76.0951 10.0853 76.0951 10.7666C76.0951 11.448 76.379 12.0252 76.9467 12.496C77.5145 12.9668 78.5626 13.3642 80.0885 13.6907L85.7403 14.9091C88.8915 15.5928 91.2455 16.7118 92.8045 18.2708C94.3636 19.8299 95.1443 21.8597 95.1443 24.3603C95.1443 26.0495 94.8036 27.5754 94.1199 28.9405C93.4385 30.3055 92.4638 31.4671 91.1958 32.4253C89.9277 33.3834 88.4018 34.1215 86.6157 34.642C84.8295 35.1625 82.8139 35.4227 80.5735 35.4227Z" fill="#00BEB4"/>
      <path d="M107.761 35.4227C105.909 35.4227 104.276 35.082 102.864 34.3983C101.451 33.717 100.347 32.7825 99.5517 31.5972C98.7545 30.412 98.3594 29.0564 98.3594 27.5281C98.3594 25.7727 98.8136 24.3935 99.7221 23.3856C100.633 22.3778 102.093 21.6563 104.108 21.2162C106.121 20.7762 108.802 20.5586 112.149 20.5586H114.83V24.6513H112.149C110.881 24.6513 109.836 24.7412 109.005 24.9187C108.177 25.0985 107.569 25.3729 107.179 25.7467C106.789 26.1205 106.595 26.5984 106.595 27.1827C106.595 27.9303 106.862 28.5478 107.399 29.0351C107.936 29.5225 108.705 29.7661 109.713 29.7661C110.524 29.7661 111.248 29.5887 111.88 29.2291C112.514 28.8719 113.025 28.3774 113.415 27.7434C113.805 27.1094 113.999 26.3713 113.999 25.5267V19.8748C113.999 18.7062 113.699 17.8758 113.098 17.3908C112.497 16.9034 111.466 16.6598 110.004 16.6598C109.223 16.6598 108.348 16.7497 107.373 16.9271C106.398 17.1069 105.31 17.4239 104.108 17.8781C103.23 18.2046 102.483 18.2519 101.868 18.0248C101.25 17.7977 100.77 17.4073 100.429 16.8561C100.089 16.3025 99.9255 15.704 99.9421 15.0534C99.9586 14.4028 100.169 13.7853 100.576 13.201C100.983 12.6167 101.608 12.1624 102.452 11.8359C104.011 11.2516 105.447 10.8613 106.763 10.6649C108.078 10.4709 109.287 10.3715 110.392 10.3715C113.056 10.3715 115.256 10.7548 116.995 11.5166C118.731 12.2807 120.032 13.4494 120.893 15.025C121.754 16.6006 122.185 18.6233 122.185 21.0908V30.9325C122.185 32.3614 121.842 33.4496 121.161 34.1972C120.479 34.9448 119.488 35.3186 118.187 35.3186C116.886 35.3186 115.84 34.9448 115.142 34.1972C114.444 33.4496 114.094 32.3614 114.094 30.9325V29.6644L114.387 30.3481C114.224 31.3891 113.85 32.281 113.266 33.0285C112.682 33.7761 111.918 34.3605 110.976 34.7839C110.034 35.205 108.963 35.418 107.761 35.418" fill="#00BEB4"/>
      <path d="M136.706 35.4227C133.588 35.4227 131.288 34.5876 129.812 32.9126C128.334 31.24 127.595 28.7157 127.595 25.335V4.48313C127.595 3.0542 127.969 1.96595 128.717 1.21836C129.464 0.470781 130.52 0.0969887 131.885 0.0969887C133.25 0.0969887 134.362 0.470781 135.126 1.21836C135.89 1.96595 136.271 3.0542 136.271 4.48313V25.0464C136.271 26.2482 136.507 27.1259 136.978 27.6772C137.449 28.2307 138.057 28.5052 138.804 28.5052C139.032 28.5052 139.268 28.4815 139.512 28.4318C139.756 28.3822 140.023 28.3419 140.316 28.3112C140.867 28.3112 141.281 28.5241 141.558 28.9452C141.835 29.3687 141.972 30.2298 141.972 31.5286C141.972 32.6666 141.745 33.5182 141.291 34.086C140.834 34.6562 140.136 35.0205 139.195 35.1814C138.935 35.2121 138.561 35.2618 138.073 35.3281C137.586 35.3943 137.13 35.4251 136.708 35.4251" fill="#00BEB4"/>
      <path d="M154.002 35.4227C151.923 35.4227 150.217 35.0394 148.885 34.2777C147.553 33.5135 146.555 32.3685 145.888 30.8426C145.221 29.3166 144.889 27.3814 144.889 25.0441V14.8121C144.889 13.3832 145.263 12.302 146.011 11.571C146.758 10.84 147.83 10.4756 149.228 10.4756C150.626 10.4756 151.696 10.84 152.443 11.571C153.191 12.302 153.565 13.3808 153.565 14.8121V25.2877C153.565 26.4564 153.808 27.3341 154.296 27.9185C154.783 28.5028 155.545 28.7962 156.586 28.7962C157.754 28.7962 158.713 28.3751 159.46 27.5281C160.208 26.6835 160.582 25.5622 160.582 24.1664V14.8097C160.582 13.3808 160.955 12.2996 161.703 11.5686C162.451 10.8376 163.522 10.4733 164.918 10.4733C166.314 10.4733 167.386 10.8376 168.133 11.5686C168.881 12.2996 169.254 13.3784 169.254 14.8097V30.9372C169.254 33.8613 167.856 35.3233 165.065 35.3233C163.7 35.3233 162.645 34.9495 161.897 34.202C161.149 33.4544 160.776 32.3661 160.776 30.9372V28.1101L161.556 30.4972C160.842 32.0893 159.843 33.3077 158.559 34.1523C157.274 34.9969 155.758 35.418 154.002 35.418" fill="#00BEB4"/>
      <path d="M184.164 35.4227C182.117 35.4227 180.305 34.9188 178.729 33.911C177.154 32.9031 175.919 31.4577 175.027 29.5745C174.133 27.6914 173.688 25.4652 173.688 22.8983C173.688 20.3314 174.135 18.0248 175.027 16.1748C175.921 14.3224 177.154 12.8934 178.729 11.888C180.305 10.8802 182.115 10.3763 184.164 10.3763C185.95 10.3763 187.559 10.7997 188.987 11.6443C190.416 12.4889 191.375 13.5772 191.862 14.9091H191.325V4.48313C191.325 3.0542 191.696 1.96595 192.446 1.21836C193.194 0.470781 194.265 0.0969887 195.661 0.0969887C197.057 0.0969887 198.089 0.470781 198.853 1.21836C199.614 1.96595 199.998 3.0542 199.998 4.48313V30.9419C199.998 32.3708 199.633 33.4591 198.902 34.2067C198.171 34.9543 197.107 35.3281 195.711 35.3281C194.315 35.3281 193.291 34.9543 192.543 34.2067C191.796 33.4591 191.422 32.3708 191.422 30.9419V28.1645L191.959 30.5516C191.502 32.0136 190.554 33.1918 189.108 34.0837C187.663 34.9779 186.014 35.4227 184.161 35.4227M186.939 29.0398C187.816 29.0398 188.595 28.8198 189.278 28.3822C189.96 27.9421 190.487 27.2773 190.861 26.3831C191.233 25.4888 191.422 24.3296 191.422 22.9007C191.422 20.7242 190.998 19.158 190.154 18.1975C189.309 17.2394 188.237 16.7615 186.939 16.7615C186.061 16.7615 185.283 16.9744 184.599 17.3955C183.918 17.819 183.381 18.4767 182.99 19.3686C182.6 20.2628 182.406 21.4386 182.406 22.9007C182.406 25.0441 182.829 26.6031 183.674 27.5778C184.518 28.5525 185.607 29.0398 186.939 29.0398Z" fill="#00BEB4"/>
      <path d="M53.6675 21.2446V24.3958H57.351C59.4565 24.3958 61.1788 22.6736 61.1788 20.568C61.1788 19.4514 60.6915 18.4483 59.9226 17.7456C59.2956 17.2346 58.5031 16.9602 57.6254 16.9602C55.5104 16.9602 53.6675 18.5335 53.6675 21.2446Z" fill="#004569"/>
      <path d="M17.2937 12.6356C17.2937 9.51749 19.8298 7.2984 23.1064 7.2984C26.383 7.2984 28.2851 9.09402 29.0776 12.2121C31.1382 9.676 34.3083 7.13989 38.271 7.13989C44.2943 7.13989 48.0464 10.9441 48.0464 17.1258V30.0169C48.0464 33.0285 45.4582 35.5126 42.2337 35.5126C39.0091 35.5126 36.421 33.0285 36.421 30.0169V20.93C36.421 18.2874 34.8359 16.7568 32.7753 16.7568C30.7147 16.7568 28.9191 18.2898 28.9191 20.93V30.0169C28.9191 33.0285 26.3309 35.5126 23.1064 35.5126C19.8819 35.5126 17.2937 33.0285 17.2937 30.0169V12.6356Z" fill="#004569"/>
      <path d="M6.04225 11.3603C2.71361 11.3603 0.0710449 14.0573 0.0710449 17.4309V29.1628C0.0710449 32.6712 2.74437 35.5149 6.04225 35.5149C9.34014 35.5149 12.0135 32.6712 12.0135 29.1628V17.4309C12.0135 14.0573 9.37089 11.3603 6.04225 11.3603Z" fill="#004569"/>
      <path d="M6.00906 0.00937271C2.65913 0.00937271 0 2.54311 0 5.71325V16.7401C0 20.038 2.68988 22.7113 6.00906 22.7113C9.32824 22.7113 12.0181 20.038 12.0181 16.7401V5.71325C12.0181 2.54311 9.35899 0.00937271 6.00906 0.00937271Z" fill="#00BEB4"/>
      <path d="M0.00952148 17.0856C0.186954 20.225 2.80586 22.7161 6.00912 22.7161C9.21237 22.7161 11.8313 20.225 12.0087 17.0856C11.8313 13.8776 9.24313 11.3652 6.00912 11.3652C2.77511 11.3652 0.186954 13.8776 0.00952148 17.0856Z" fill="#27B4AE"/>
    </g>
    <defs>
      <clipPath id="clip0_10_92">
        <rect width="200" height="35.5126" fill="white"/>
      </clipPath>
    </defs>
  </svg>